<svg xmlns="http://www.w3.org/2000/svg"  viewBox="0 0 256 256" width="256px" height="256px">
    <path d="M 28.875 0 C 28.855469 0.0078125 28.832031 0.0195313 28.8125 0.03125 L 0.8125 5.3125 C 0.335938 5.402344 -0.0078125 5.824219 0 6.3125 L 0 43.59375 C -0.0078125 44.082031 0.335938 44.503906 0.8125 44.59375 L 28.8125 49.96875 C 29.101563 50.023438 29.402344 49.949219 29.632813 49.761719 C 29.859375 49.574219 29.996094 49.296875 30 49 L 30 40 L 49 40 C 49.550781 40 50 39.550781 50 39 L 50 11 C 50 10.449219 49.550781 10 49 10 L 30 10 L 30 1 C 30.003906 0.710938 29.878906 0.4375 29.664063 0.246094 C 29.449219 0.0546875 29.160156 -0.0351563 28.875 0 Z M 28 2.1875 L 28 10.6875 C 27.941406 10.882813 27.941406 11.085938 28 11.28125 L 28 38.8125 C 27.972656 38.945313 27.972656 39.085938 28 39.21875 L 28 47.8125 L 2 42.78125 L 2 7.125 Z M 30 12 L 48 12 L 48 38 L 30 38 L 30 35 L 31.59375 35 C 32.292969 34.898438 37.992188 27.605469 37.09375 26.90625 C 36.394531 26.207031 33.992188 30.085938 31.09375 32.1875 L 30 32.1875 L 30 25.5 C 31.546875 26.53125 32.984375 27.234375 33.3125 26.90625 C 33.824219 26.394531 31.925781 25.078125 30 23.28125 L 30 17.8125 L 31.6875 17.8125 L 32.8125 18.8125 C 33.011719 19.011719 33.207031 19.011719 33.40625 18.8125 L 34.1875 18 C 34.386719 17.800781 34.386719 17.605469 34.1875 17.40625 L 31.90625 15.09375 C 31.804688 14.992188 31.601563 14.90625 31.5 14.90625 L 30 14.90625 Z M 19.1875 14.8125 L 10.09375 15.8125 L 10.09375 33.90625 L 19.5 34.8125 L 19.5 31.09375 L 13.59375 30.8125 L 13.59375 26.5 L 18.8125 26.59375 L 18.8125 23 L 13.59375 23.09375 L 13.59375 18.90625 L 19.1875 18.5 Z M 38.3125 15 C 37.613281 15.101563 32.011719 22.394531 32.8125 23.09375 C 33.511719 23.792969 35.914063 19.914063 38.8125 17.8125 L 42.09375 17.8125 L 42.09375 21.59375 L 41.09375 22.59375 C 40.894531 22.792969 40.894531 22.988281 41.09375 23.1875 L 41.90625 24 C 42.105469 24.199219 42.300781 24.199219 42.5 24 L 44.8125 21.6875 C 44.914063 21.585938 45 21.414063 45 21.3125 L 45 15.6875 C 45 15.289063 44.707031 15 44.40625 15 Z M 36.9375 23.03125 C 36.839844 23.035156 36.738281 23.042969 36.6875 23.09375 C 35.988281 23.792969 39.992188 26.101563 42.09375 29 L 42.09375 32.1875 L 38.3125 32.1875 L 37.1875 31.1875 C 36.988281 30.988281 36.792969 30.988281 36.59375 31.1875 L 35.8125 32 C 35.613281 32.199219 35.613281 32.394531 35.8125 32.59375 L 38.09375 34.90625 C 38.195313 35.007813 38.398438 35.09375 38.5 35.09375 L 44.3125 35.09375 C 44.613281 35.09375 44.90625 34.800781 44.90625 34.5 L 44.90625 28.59375 C 44.90625 27.84375 38.410156 22.980469 36.9375 23.03125 Z"/>
</svg>